<?xml version="1.0" encoding="UTF-8"?>
<svg width="100pt" height="100pt" version="1.1" viewBox="0 0 100 100" xmlns="http://www.w3.org/2000/svg">
 <g>
  <path d="m46.25 50.27h8l-1.25-11.918c-0.16016-1.4844-1.4102-2.6094-2.8984-2.6133h-28.273c-1.4883 0.003907-2.7383 1.1289-2.8984 2.6133l-3.8203 35.93c-0.085937 0.82031 0.17578 1.6406 0.72656 2.2539 0.55078 0.61719 1.3398 0.97266 2.1641 0.97656h24.891c-0.92188-0.53906-1.4609-1.5469-1.3906-2.6133l1.4297-21.52c0.12109-1.7461 1.5703-3.1016 3.3203-3.1094zm-16.922-8.8398c0 1.0508-0.84766 1.8984-1.8984 1.8984-1.0508 0-1.8984-0.84766-1.8984-1.8984v-1.2695c0-1.0508 0.84766-1.8984 1.8984-1.8984 1.0508 0 1.8984 0.84766 1.8984 1.8984zm13.289-1.2695h0.003906c0-1.0508 0.84766-1.8984 1.8984-1.8984s1.9023 0.84766 1.9023 1.8984v1.2695c0 1.0508-0.85156 1.8984-1.9023 1.8984s-1.8984-0.84766-1.8984-1.8984z"/>
  <path d="m26.328 33.199c3.2383 0 2.8711 0.28906 2.8711-2.2188 0.003906-1.9102 0.8125-3.7305 2.2266-5.0117 1.4141-1.2852 3.3047-1.9102 5.2031-1.7305 3.5156 0.40625 6.1602 3.4023 6.1211 6.9414v1.3398c0 0.375 0.30469 0.67969 0.67969 0.67969 3.1797 0 2.8711 0.26172 2.8711-1.9414v0.003907c0.019531-5.8242-4.6797-10.562-10.5-10.59-5.6328 0.10156-10.141 4.6953-10.141 10.328v1.5391c0.011719 0.36328 0.30469 0.65625 0.66797 0.66016z"/>
  <path d="m84.891 67.66-3.4219-26.75c-0.12891-1.0117-0.97656-1.7773-2-1.8008h-21.617c-1.0703 0.003906-1.9648 0.82422-2.0508 1.8906l-0.62109 9.2383h3.8203c-0.16016-1.5117-0.23047-2.8906-0.26953-3.9102-0.88672-0.30469-1.4258-1.207-1.2695-2.1289 0.15625-0.92578 0.95703-1.6055 1.8945-1.6055s1.7383 0.67969 1.8945 1.6055c0.15234 0.92188-0.38281 1.8242-1.2695 2.1289 0 1.2383 0.14062 2.5898 0.28125 3.9297 3.1406 0 5-0.37891 6.2188 1.6602 0.44141 0.75 0.39062 1 0.91016 5v0.003906c1.1406-3.4492 1.8711-7.0156 2.1797-10.633-0.86328-0.36719-1.332-1.3047-1.1094-2.2188 0.21875-0.91016 1.0664-1.5273 2.0039-1.4609 0.93359 0.066406 1.6836 0.80078 1.7734 1.7344 0.085938 0.93359-0.51172 1.793-1.418 2.0352-0.30078 3-1.1484 9.4297-3.1289 12.84l1.5977 12.781s6.1016 1.1797 6.2891 1.1992c0.78125 0-0.33984 0.42969 8.5703-4.1406 0.51172-0.26953 0.80469-0.82422 0.74219-1.3984z"/>
  <path d="m65.211 53.391c-0.10547-0.82422-0.80859-1.4414-1.6406-1.4414h-17.32c-0.87109 0-1.5938 0.67188-1.6484 1.5391l-1.4297 21.512c-0.042969 0.57031 0.34766 1.082 0.90625 1.1914 0.078125 0 16.301 3.1406 16.391 3.1406 0.57812 0-0.32812 0.39062 6.8789-3.3086l0.003906-0.003907c0.44141-0.20312 0.70313-0.66797 0.64844-1.1484zm-8.582 4.4102c-0.30078 3-1.2188 9.6797-3.5391 11.578-2 1.6094-5.75 0.48047-6.1719-11.609h0.003906c-0.71484-0.24219-1.1445-0.96875-1.0195-1.7109 0.12109-0.74219 0.76562-1.2852 1.5195-1.2852 0.75 0 1.3945 0.54297 1.5156 1.2852 0.125 0.74219-0.30469 1.4688-1.0156 1.7109 0.46875 13.73 6.0703 16.121 7.6992 0-0.69531-0.29297-1.0742-1.0469-0.89844-1.7773 0.17578-0.73047 0.85547-1.2305 1.6055-1.1758 0.75 0.050782 1.3555 0.64062 1.4258 1.3867 0.074219 0.75-0.40625 1.4414-1.1328 1.6367z"/>
 </g>
</svg>
