<svg height='100px' width='100px'  fill="#1a8248" xmlns="http://www.w3.org/2000/svg" data-name="Layer 1" viewBox="0 0 100 100" x="0px" y="0px"><title>Artboard 11</title><path d="M13.67,57.64a16.54,16.54,0,0,1,.6-2.31,16.19,16.19,0,0,1,2.18-4.18,16.44,16.44,0,0,1,3.2-3.31,19.56,19.56,0,0,1,1.9-1.29l2.11-1.25a84.9,84.9,0,0,1,14-6.6c.24-.08.3-.76.13-1.5s-.45-1.14-.7-1.11c-3.91.35-9.62,2-15.7,5q-1.14.55-2.31,1.16a23.14,23.14,0,0,0-2.48,1.49,20.6,20.6,0,0,0-7.5,9.77,21,21,0,0,0-.86,3.12l-.5,2.83C5.2,74.31,3.07,89.26,2.7,96.82c0,.27.61.59,1.37.7s1.26,0,1.33-.23c2.19-7.25,5.22-22,7.79-36.91Z"></path><path d="M97.22,9A8.38,8.38,0,0,0,89,1.76H85l-8,0-15.81.06-15.36.11A8.14,8.14,0,0,0,38,8.2a7.62,7.62,0,0,0-.2,1.29l0,.65v.45l0,1.8,0,3.55c.2,16.44.49,30.82.87,41.32l-.07,0a3.1,3.1,0,0,0-3.44.2s-.21.65-.41,1.38-.3,1.17-.29,1.2a3.24,3.24,0,0,0,1.68,2.13,3.12,3.12,0,0,0,2.62.08h0L38,63.74a26.07,26.07,0,0,1-5,5.86c-.22.2,0,.88.41,1.51s.92.88,1.19.73A22.74,22.74,0,0,0,41.22,66c.55-.71,1-1.4,1.51-2.1l1.51-2.17L47.44,57l1.67-2.49L50,53.28c.28-.42.61-.93.77-1.12a4.37,4.37,0,0,1,7,.15,4.33,4.33,0,0,1,.56,3.89c-.05.16-.13.31-.19.47l-.28.49-.89,1.43-1.76,2.86-3.45,5.67a23.31,23.31,0,0,0-3.27,13.36,20.1,20.1,0,0,1-1.82,9.42,22.37,22.37,0,0,1-4.34,6.24c-.2.21,0,.87.51,1.45s.94.79,1.19.62A20.47,20.47,0,0,0,50,91.73a21.21,21.21,0,0,0,1.41-2.81l.13.2c.3.43.54.8,1,1.31A7,7,0,0,0,54.42,92a7.62,7.62,0,0,0,5.36.82,7.89,7.89,0,0,0,4.89-3.32,7.77,7.77,0,0,0,1-2.28,7,7,0,0,0,3.52.12,7.37,7.37,0,0,0,5.57-5.69,7,7,0,0,0-.27-3.81,7.17,7.17,0,0,0-.61-1.24l-.21-.33,12.07.24,3.33,0a7.92,7.92,0,0,0,7.31-5.19,7.72,7.72,0,0,0,.48-2.4V67.1l.27-29.86.07-15.81q0-4,0-8V9.78A6.24,6.24,0,0,0,97.22,9ZM60.1,86.43a3.22,3.22,0,0,1-3.59,1.25,3.44,3.44,0,0,1-.92-.41l-1.23-.89a18.82,18.82,0,0,0-1.74-1.1,22.72,22.72,0,0,0,.58-4.91,19.68,19.68,0,0,1,.58-4.74l4.52.18c-.49.32-.85.61-.83.69A27.7,27.7,0,0,0,59.62,82l.41.82c.12.25.33.62.36.73a3.19,3.19,0,0,1,.23,1A3.12,3.12,0,0,1,60.1,86.43Zm8.82-5a3.42,3.42,0,0,1-2.4,1,4.08,4.08,0,0,1-1-.1A7.62,7.62,0,0,0,64.87,81c-.27-.45-.41-.6-.6-.88l-.54-.73a35,35,0,0,0-3-3.54c2.74.09,5.71.18,8.87.26,0,.26,0,.53,0,.82s.07.71.13,1.08a7,7,0,0,1,.13,1A3.47,3.47,0,0,1,68.92,81.45ZM92.18,68.77a3,3,0,0,1-.16,1,3.28,3.28,0,0,1-1.16,1.61A3.33,3.33,0,0,1,89,72l-3.22.06-12.27.24c-7.29.17-13.66.36-18.85.58a18.93,18.93,0,0,1,1.55-3l3.55-5.57,1.79-2.84.89-1.43c.15-.24.37-.65.55-1s.33-.71.45-1.09a9.78,9.78,0,0,0,.43-4.63,9.9,9.9,0,0,0-1.77-4.28,9.67,9.67,0,0,0-7.93-3.92,9.53,9.53,0,0,0-7.54,3.92c-.46.65-.66,1-.94,1.48l-.79,1.32-1.54,2.58-1.53,2.61c.38-10.48.66-24.78.86-41.13l0-3.55,0-1.8v-.45l0-.26a2.7,2.7,0,0,1,.09-.5,3.12,3.12,0,0,1,3-2.32l15.26.1,15.81.06,8,0h4A2.89,2.89,0,0,1,90.83,8a2.83,2.83,0,0,1,1,1.78,1.48,1.48,0,0,1,0,.26v3.4l0,8c0,5.33,0,10.61.07,15.81l.27,29.86v1.67Z"></path><path d="M76.28,36.54a19.76,19.76,0,0,1,1,2.67,3.19,3.19,0,0,0,1.48.19c.7,0,1.24-.11,1.26-.24a10,10,0,0,0,0-3.8,12.2,12.2,0,0,0-2-4.68,12.88,12.88,0,0,0-4.2-3.76,7.6,7.6,0,0,0,.54-.82,7.34,7.34,0,0,0,.94-4.7c0-.18-.67-.31-1.42-.3a2.51,2.51,0,0,0-1.25.2,6.33,6.33,0,0,1-1.47,2.56,5.12,5.12,0,0,1-2.34,1.39,13.26,13.26,0,0,0-1.64-.1c-.33,0-.65,0-1,.06a4.27,4.27,0,0,1-1.5-7.39,4.47,4.47,0,0,1,3.42-1,5,5,0,0,1,3,1.53A6.28,6.28,0,0,1,72.6,20.9a3.07,3.07,0,0,0,1.48.2c.7,0,1.24-.14,1.26-.3a7.37,7.37,0,0,0-1-4.71,8.56,8.56,0,0,0-5.23-4,9,9,0,0,0-3.87-.17,9.22,9.22,0,0,0-3.8,1.63A9.31,9.31,0,0,0,60,27.27a12.79,12.79,0,0,0-3.62,3.42,12.18,12.18,0,0,0-2,4.68,10,10,0,0,0,0,3.79c0,.14.67.25,1.43.23A2.6,2.6,0,0,0,57,39.21a20,20,0,0,1,1-2.67,11.77,11.77,0,0,1,2-2.85,9.76,9.76,0,0,1,14.18,0A11.71,11.71,0,0,1,76.28,36.54Z"></path><path d="M70.32,49.66a6.09,6.09,0,0,0-.09,1.44,5,5,0,0,0,.09,1.24c2.94,1.87,11.81,1.88,14.75,0a6.21,6.21,0,0,0,.09-1.47,5.16,5.16,0,0,0-.09-1.28C82.13,47.78,73.26,47.79,70.32,49.66Z"></path><path d="M70.32,59.87a6.09,6.09,0,0,0-.09,1.44,5,5,0,0,0,.09,1.24c2.94,1.87,11.81,1.88,14.75,0a6.21,6.21,0,0,0,.09-1.47,5.16,5.16,0,0,0-.09-1.28C82.13,58,73.26,58,70.32,59.87Z"></path></svg>