<?xml version="1.0" encoding="utf-8"?>
<!-- Generator: Adobe Illustrator 24.3.0, SVG Export Plug-In . SVG Version: 6.00 Build 0)  -->
<svg version="1.1" id="Layer_1" xmlns="http://www.w3.org/2000/svg" xmlns:xlink="http://www.w3.org/1999/xlink" x="0px" y="0px"
	 viewBox="0 0 317.8 120" style="enable-background:new 0 0 317.8 120;" xml:space="preserve">
<style type="text/css">
	.st0{fill:#108043;}
</style>
<path d="M22.1,68.5c0.1-0.8,0.3-1.6,0.6-2.3c0.5-1.5,1.3-2.9,2.2-4.2c0.9-1.2,2-2.4,3.2-3.3c0.6-0.5,1.2-0.9,1.9-1.3l2.1-1.2
	c4.5-2.6,9.1-4.8,14-6.6c0.2-0.1,0.3-0.8,0.1-1.5s-0.5-1.1-0.7-1.1c-3.9,0.3-9.6,2-15.7,5c-0.8,0.4-1.5,0.8-2.3,1.2
	c-0.9,0.4-1.7,0.9-2.5,1.5c-3.4,2.4-6.1,5.8-7.5,9.8c-0.4,1-0.7,2.1-0.9,3.1l-0.5,2.8c-2.5,14.8-4.7,29.8-5,37.4
	c0,0.3,0.6,0.6,1.4,0.7s1.3,0,1.3-0.2c2.2-7.2,5.2-22,7.8-36.9L22.1,68.5z"/>
<path d="M105.6,19.8c-0.6-4.1-4.1-7.2-8.2-7.2h-4h-8l-15.8,0.1l-15.4,0.1c-3.7,0-7,2.6-7.8,6.3c-0.1,0.4-0.2,0.9-0.2,1.3V21v0.5v1.8
	v3.6c0.2,16.4,0.5,30.8,0.9,41.3H47c-1.1-0.6-2.4-0.6-3.4,0.2c0,0-0.2,0.7-0.4,1.4c-0.2,0.7-0.3,1.2-0.3,1.2
	c0.2,0.9,0.8,1.7,1.7,2.1c0.8,0.4,1.8,0.4,2.6,0.1l0,0l-0.8,1.5c-1.4,2.2-3.1,4.2-5,5.9c-0.2,0.2,0,0.9,0.4,1.5s0.9,0.9,1.2,0.7
	c2.6-1.5,4.8-3.5,6.6-5.8c0.5-0.7,1-1.4,1.5-2.1l1.5-2.2l3.2-4.7l1.7-2.5l0.9-1.2c0.3-0.4,0.6-0.9,0.8-1.1c1.5-1.9,4.2-2.2,6.1-0.8
	c0.3,0.3,0.6,0.6,0.9,0.9c0.8,1.1,1,2.6,0.6,3.9c0,0.2-0.1,0.3-0.2,0.5L66.2,68l-0.9,1.4l-1.8,2.9L60.1,78c-2.4,4-3.5,8.7-3.3,13.4
	c0.2,3.2-0.5,6.5-1.8,9.4c-1.1,2.3-2.5,4.4-4.3,6.2c-0.2,0.2,0,0.9,0.5,1.4s0.9,0.8,1.2,0.6c2.4-1.7,4.5-3.9,6-6.5
	c0.5-0.9,1-1.8,1.4-2.8l0.1,0.2c0.3,0.4,0.5,0.8,1,1.3c0.5,0.6,1.2,1.2,1.9,1.6c1.6,0.9,3.5,1.2,5.4,0.8c2-0.4,3.8-1.6,4.9-3.3
	c0.5-0.7,0.8-1.5,1-2.3c1.1,0.3,2.4,0.4,3.5,0.1c2.8-0.6,5-2.9,5.6-5.7c0.3-1.3,0.2-2.6-0.3-3.8c-0.2-0.4-0.4-0.8-0.6-1.2l-0.2-0.3
	l12.1,0.2h3.3c3.3-0.1,6.2-2.1,7.3-5.2c0.3-0.8,0.4-1.6,0.5-2.4v-1.8l0.3-29.9l0.1-15.8c0-2.7,0-5.3,0-8v-3.6
	C105.6,20.4,105.6,20.1,105.6,19.8z M68.5,97.3c-0.8,1.2-2.2,1.7-3.6,1.2c-0.3-0.1-0.6-0.2-0.9-0.4l-1.2-0.9
	c-0.6-0.4-1.1-0.8-1.7-1.1c0.4-1.6,0.6-3.3,0.6-4.9c0-1.6,0.2-3.2,0.6-4.7l4.5,0.2c-0.5,0.3-0.8,0.6-0.8,0.7
	c0.5,1.9,1.2,3.7,2.2,5.5l0.4,0.8c0.1,0.2,0.3,0.6,0.4,0.7c0.1,0.3,0.2,0.7,0.2,1C69,96.1,68.9,96.7,68.5,97.3z M77.3,92.3
	c-0.6,0.6-1.5,1-2.4,1c-0.3,0-0.7,0-1-0.1c-0.2-0.5-0.4-0.9-0.6-1.3c-0.3-0.4-0.4-0.6-0.6-0.9l-0.5-0.7c-0.9-1.2-1.9-2.4-3-3.5
	c2.7,0.1,5.7,0.2,8.9,0.3c0,0.3,0,0.5,0,0.8s0.1,0.7,0.1,1.1c0.1,0.3,0.1,0.7,0.1,1C78.3,90.8,77.9,91.6,77.3,92.3L77.3,92.3z
	 M100.6,79.6c0,0.3-0.1,0.7-0.2,1c-0.2,0.6-0.6,1.2-1.2,1.6c-0.5,0.4-1.2,0.6-1.9,0.6l-3.2,0.1l-12.3,0.2
	c-7.3,0.2-13.7,0.4-18.8,0.6c0.4-1,0.9-2,1.6-3l3.5-5.6l1.8-2.8l0.9-1.4c0.2-0.2,0.4-0.7,0.6-1s0.3-0.7,0.4-1.1
	c0.5-1.5,0.7-3.1,0.4-4.6c-0.2-1.5-0.8-3-1.8-4.3c-1.9-2.5-4.8-4-7.9-3.9c-3,0.1-5.8,1.5-7.5,3.9c-0.5,0.7-0.7,1-0.9,1.5l-0.8,1.3
	l-1.5,2.6l-1.5,2.6c0.4-10.5,0.7-24.8,0.9-41.1v-3.5v-1.8v-0.4v-0.3c0-0.2,0-0.3,0.1-0.5c0.4-1.4,1.6-2.3,3-2.3L69.4,18L85.2,18h8h4
	c0.7,0,1.4,0.3,2,0.8c0.5,0.4,0.9,1.1,1,1.8c0,0.1,0,0.2,0,0.3v3.4v8c0,5.3,0,10.6,0.1,15.8l0.3,29.9L100.6,79.6L100.6,79.6z"/>
<path d="M84.7,47.4c0.4,0.9,0.7,1.8,1,2.7c0.5,0.2,1,0.2,1.5,0.2c0.7,0,1.2-0.1,1.3-0.2c0.2-1.3,0.2-2.5,0-3.8c-0.3-1.7-1-3.3-2-4.7
	c-1.1-1.5-2.5-2.8-4.2-3.8c0.2-0.3,0.4-0.5,0.5-0.8c0.8-1.4,1.2-3.1,0.9-4.7c0-0.2-0.7-0.3-1.4-0.3c-0.4,0-0.9,0-1.2,0.2
	c-0.3,1-0.8,1.8-1.5,2.6c-0.6,0.7-1.4,1.1-2.3,1.4C76.7,36,76.1,36,75.6,36c-0.3,0-0.7,0-1,0.1c-2.3-0.7-3.6-3-2.9-5.3
	c0.2-0.8,0.7-1.5,1.4-2.1c1-0.8,2.2-1.2,3.4-1c1.1,0.1,2.2,0.7,3,1.5c0.7,0.7,1.2,1.6,1.5,2.6c0.5,0.2,1,0.3,1.5,0.2
	c0.7,0,1.2-0.1,1.3-0.3c0.2-1.6-0.1-3.3-1-4.7c-1.1-2-3-3.4-5.2-4c-1.3-0.3-2.6-0.4-3.9-0.2c-1.4,0.2-2.7,0.8-3.8,1.6
	c-4.1,3-5.1,8.9-2,13c0.2,0.2,0.4,0.5,0.6,0.7c-1.4,0.9-2.6,2.1-3.6,3.4c-1,1.4-1.7,3-2,4.7c-0.2,1.3-0.2,2.5,0,3.8
	c0,0.1,0.7,0.2,1.4,0.2c0.4,0,0.8,0,1.2-0.2c0.3-0.9,0.6-1.8,1-2.7c0.5-1,1.2-2,2-2.8c3.7-3.9,9.9-4.1,13.8-0.4
	c0.1,0.1,0.3,0.3,0.4,0.4C83.4,45.4,84.1,46.3,84.7,47.4z"/>
<path d="M78.7,60.5c-0.1,0.5-0.1,1-0.1,1.4c0,0.4,0,0.8,0.1,1.2c2.9,1.9,11.8,1.9,14.8,0c0.1-0.5,0.1-1,0.1-1.5c0-0.4,0-0.9-0.1-1.3
	C90.5,58.6,81.6,58.6,78.7,60.5z"/>
<path d="M78.7,70.7c-0.1,0.5-0.1,1-0.1,1.4c0,0.4,0,0.8,0.1,1.2c2.9,1.9,11.8,1.9,14.8,0c0.1-0.5,0.1-1,0.1-1.5c0-0.4,0-0.9-0.1-1.3
	C90.5,68.8,81.6,68.8,78.7,70.7z"/>
<g>
	<g transform="translate(-51.592717,-358.38438)">
		<path class="st0" d="M181.9,425.6c-1.1,0-2.1,0.5-2.8,1.2l-8.4,8.3c-1.6,1.6-1.6,4.3,0,5.9c0,0,0,0,0,0l8.4,8.3
			c1.6,1.6,4.3,1.6,5.9,0c1.6-1.6,1.6-4.3,0-5.9l-1.2-1.2h54.9l-1.2,1.2c-1.6,1.6-1.6,4.3,0,5.9c0,0,0,0,0,0c1.6,1.6,4.3,1.6,5.9,0
			c0,0,0,0,0,0l8.3-8.3c1.6-1.6,1.6-4.3,0-5.9c0,0,0,0,0,0l-8.3-8.3c-0.8-0.8-1.9-1.2-3.1-1.2c-1.1,0-2.1,0.5-2.8,1.2
			c-1.6,1.6-1.6,4.3,0,5.9c0,0,0,0,0,0l1.2,1.2h-54.9l1.2-1.2c1.6-1.6,1.6-4.3,0-5.9c0,0,0,0,0,0C184.1,426,183,425.5,181.9,425.6
			L181.9,425.6z"/>
	</g>
</g>
<path class="st0" d="M159.6,10.9c-16,0-29.1,11.8-29.1,26.2s13.1,26.2,29.1,26.2s29.1-11.8,29.1-26.2S175.6,10.9,159.6,10.9z
	 M159.6,57.4c-12.5,0-22.6-9.1-22.6-20.4s10.2-20.4,22.6-20.4c12.5,0,22.6,9.1,22.6,20.4S172,57.4,159.6,57.4z"/>
<polygon class="st0" points="156.3,38.7 149.9,32.9 145.3,37.1 156.3,47 173.9,31.2 169.3,27.1 "/>
<g transform="translate(0,-288.53332)">
	<path d="M295,311.5c0-4.4-3.6-8-8-8c-4.4,0-8,3.5-8,7.9c0,0,0,0,0,0c0,4.4,3.6,8,8,8C291.4,319.5,295,315.9,295,311.5
		C295,311.5,295,311.5,295,311.5z"/>
	<path d="M251.2,388.2c-2.2,1.8-2.6,5-0.8,7.2c1.8,2.2,5,2.6,7.2,0.8s2.6-5,0.8-7.2c-0.4-0.5-1-1-1.6-1.3l-12.2-11.6
		c-1.4-1.3-3.4-1.5-5-0.6l-21.6,11.8c-2.7-0.8-5.6,0.8-6.3,3.6c-0.8,2.7,0.8,5.5,3.6,6.3c2.7,0.8,5.6-0.8,6.3-3.6
		c0.3-1.1,0.2-2.2-0.2-3.3l20.2-11.1L251.2,388.2z"/>
	<path d="M280.9,394.9l22.1-32.6c0.6-0.8,0.8-1.9,0.7-2.9l-3-24.7c-0.7-5.8-6-10-11.9-9.3c-0.7,0.1-1.3,0.2-2,0.4l-22.3,7.1
		c-2.8,0.9-4.3,3.9-3.4,6.7c0.9,2.8,3.9,4.3,6.7,3.4l17.1-5.5l2.8,23.5c0.3,2.5-0.3,5.1-1.7,7.2L272,389c-1.6,2.4-1,5.7,1.5,7.4
		C276,398,279.3,397.3,280.9,394.9L280.9,394.9z"/>
	<path d="M257,343.3l2.3-1c1.1-0.5,1.6-1.7,1.1-2.8c-0.5-1.1-1.7-1.6-2.8-1.1l0,0l-2.3,1c-2.8,1.2-4.7,3.8-5.1,6.9l-34.6,1.5
		c-2.3,0.1-4.1,2-4.1,4.3v15.5c0,2.2,1.7,4.1,3.9,4.2l34.3,3c2.4,0.2,4.4-1.5,4.6-3.9c0-0.1,0-0.2,0-0.4v-23.3
		C254.5,345.5,255.5,344,257,343.3L257,343.3z"/>
	<path d="M314.2,390.1c1,2.7-0.4,5.8-3.1,6.8c-2.8,1-5.8-0.4-6.9-3.1l-6.2-16.5l7.3-10.8L314.2,390.1z"/>
</g>
</svg>
