<svg xmlns="http://www.w3.org/2000/svg" viewBox="0 0 289.11 101.19"><path d="M25.32,67.63a17.79,17.79,0,0,1,.6-2.31,16.25,16.25,0,0,1,5.38-7.49,19.85,19.85,0,0,1,1.9-1.29l2.11-1.25a84.75,84.75,0,0,1,14-6.6c.24-.08.3-.76.13-1.5s-.45-1.14-.7-1.11c-3.91.35-9.62,2-15.7,5-.76.36-1.53.75-2.31,1.16a23.27,23.27,0,0,0-2.48,1.49,20.63,20.63,0,0,0-7.5,9.77,22.14,22.14,0,0,0-.86,3.12l-.5,2.83c-2.54,14.85-4.67,29.8-5,37.36,0,.27.61.59,1.37.7s1.26,0,1.33-.23c2.19-7.25,5.22-22,7.79-36.91Z" transform="translate(-14.35 -10.02)"/><path d="M108.87,19a8.37,8.37,0,0,0-8.22-7.24h-12l-15.81.06-15.36.11a8.14,8.14,0,0,0-7.83,6.27,7.88,7.88,0,0,0-.2,1.29v6.45c.2,16.44.49,30.82.87,41.32h-.07a3.09,3.09,0,0,0-3.44.2s-.21.65-.41,1.38a10.3,10.3,0,0,0-.29,1.2,3.28,3.28,0,0,0,1.68,2.13,3.12,3.12,0,0,0,2.62.08h0l-.76,1.49a25.94,25.94,0,0,1-5,5.86c-.22.2,0,.88.41,1.51s.92.88,1.19.73A22.72,22.72,0,0,0,52.87,76c.55-.71,1-1.4,1.51-2.1l1.51-2.17L59.09,67l1.67-2.49.89-1.23c.28-.42.61-.93.77-1.12a4.35,4.35,0,0,1,7,.15A4.31,4.31,0,0,1,70,66.19c0,.16-.13.31-.19.47l-.28.49-.89,1.43-1.76,2.86-3.45,5.67a23.29,23.29,0,0,0-3.27,13.36,20,20,0,0,1-1.82,9.42A22.28,22.28,0,0,1,54,106.13c-.2.21,0,.87.51,1.45s.94.79,1.19.62a20.43,20.43,0,0,0,6-6.48,21.08,21.08,0,0,0,1.41-2.81l.13.2a11.47,11.47,0,0,0,1,1.31A7.09,7.09,0,0,0,66.07,102a7.65,7.65,0,0,0,5.36.82,7.89,7.89,0,0,0,4.89-3.32,7.62,7.62,0,0,0,1-2.28,7,7,0,0,0,3.52.12,7.38,7.38,0,0,0,5.57-5.69,6.87,6.87,0,0,0-.27-3.81,6.21,6.21,0,0,0-.61-1.24l-.21-.33,12.07.24h3.33A7.94,7.94,0,0,0,108,81.31a7.59,7.59,0,0,0,.48-2.4V77.09l.27-29.86.07-15.81V19.77A5.08,5.08,0,0,0,108.87,19ZM71.75,96.42a3.22,3.22,0,0,1-3.59,1.25,3.6,3.6,0,0,1-.92-.41L66,96.37a17.55,17.55,0,0,0-1.74-1.1,22.56,22.56,0,0,0,.58-4.91,19.91,19.91,0,0,1,.58-4.74L70,85.8c-.49.32-.85.61-.83.69A28.14,28.14,0,0,0,71.27,92l.41.82c.12.25.33.62.36.73a3,3,0,0,1-.29,2.88Zm8.82-5a3.46,3.46,0,0,1-2.4,1,4.85,4.85,0,0,1-1-.1A7.12,7.12,0,0,0,76.52,91c-.27-.45-.41-.6-.6-.88l-.54-.73a33.8,33.8,0,0,0-3-3.54c2.74.09,5.71.18,8.87.26v.82A7.87,7.87,0,0,0,81.38,88a6.67,6.67,0,0,1,.13,1,3.46,3.46,0,0,1-.94,2.44Zm23.26-12.66a2.87,2.87,0,0,1-.16,1,3.28,3.28,0,0,1-1.16,1.61,3.34,3.34,0,0,1-1.86.62l-3.22.06-12.27.24c-7.29.17-13.66.36-18.85.58a19.34,19.34,0,0,1,1.55-3l3.55-5.57,1.79-2.84L74.09,70c.15-.24.37-.65.55-1a6.94,6.94,0,0,0,.45-1.09,9.64,9.64,0,0,0-9.27-12.83A9.52,9.52,0,0,0,58.28,59a16.69,16.69,0,0,0-.94,1.48l-.79,1.32L55,64.41,53.48,67c.38-10.48.66-24.78.86-41.13V19.83a4,4,0,0,1,.09-.5,3.1,3.1,0,0,1,3-2.32l15.26.1,15.81.06h12a2.88,2.88,0,0,1,2,.82,2.77,2.77,0,0,1,1,1.78,1.13,1.13,0,0,1,0,.26v11.4c0,5.33,0,10.61.07,15.81l.27,29.86v1.67Z" transform="translate(-14.35 -10.02)"/><path d="M87.93,46.53a19,19,0,0,1,1,2.67,3.24,3.24,0,0,0,1.48.19c.7,0,1.24-.11,1.26-.24a9.72,9.72,0,0,0,0-3.8,12.11,12.11,0,0,0-2-4.68,12.72,12.72,0,0,0-4.2-3.76,7.24,7.24,0,0,0,.54-.82,7.37,7.37,0,0,0,.94-4.7c0-.18-.67-.31-1.42-.3a2.46,2.46,0,0,0-1.25.2,6.33,6.33,0,0,1-1.47,2.56,5.23,5.23,0,0,1-2.34,1.39,12.78,12.78,0,0,0-1.64-.1,5.71,5.71,0,0,0-1,.06A4.27,4.27,0,0,1,75,29.89a4.35,4.35,0,0,1,1.38-2.08,4.43,4.43,0,0,1,3.42-1,4.9,4.9,0,0,1,3,1.53,6.17,6.17,0,0,1,1.5,2.55,3.25,3.25,0,0,0,1.48.2c.7,0,1.24-.14,1.26-.3a7.33,7.33,0,0,0-1-4.71,8.53,8.53,0,0,0-5.23-4,8.87,8.87,0,0,0-3.87-.17,9.2,9.2,0,0,0-3.8,1.63,9.3,9.3,0,0,0-2,13c.18.24.37.48.57.71A12.69,12.69,0,0,0,68,40.68a12.11,12.11,0,0,0-2,4.68,10.07,10.07,0,0,0,0,3.79c0,.14.67.25,1.43.23a2.66,2.66,0,0,0,1.19-.18,20.33,20.33,0,0,1,1-2.67,11.89,11.89,0,0,1,2-2.85,9.76,9.76,0,0,1,13.8-.39l.38.39A11.55,11.55,0,0,1,87.93,46.53Z" transform="translate(-14.35 -10.02)"/><path d="M82,59.65a6.89,6.89,0,0,0-.09,1.44A5.18,5.18,0,0,0,82,62.33c2.94,1.87,11.81,1.88,14.75,0a6.06,6.06,0,0,0,.09-1.47,4.58,4.58,0,0,0-.09-1.28C93.78,57.77,84.91,57.78,82,59.65Z" transform="translate(-14.35 -10.02)"/><path d="M82,69.86a6.89,6.89,0,0,0-.09,1.44A5.18,5.18,0,0,0,82,72.54c2.94,1.87,11.81,1.88,14.75,0a6.06,6.06,0,0,0,.09-1.47,4.58,4.58,0,0,0-.09-1.28C93.78,68,84.91,68,82,69.86Z" transform="translate(-14.35 -10.02)"/><path d="M303.37,33v-.1c0-.2-.1-.3-.1-.5h0c-.1-.1-.2-.3-.3-.4v-.1l-15.4-18.4a1.8,1.8,0,0,0-1.5-.7h-52.8a2.09,2.09,0,0,0-1.6.8L217.17,32h0c-.1.1-.2.3-.3.4h0a.6.6,0,0,0-.1.4v76.4a2,2,0,0,0,2,2h82.7a2,2,0,0,0,2-2v-76C303.37,33.11,303.37,33.11,303.37,33Zm-49.2-16.2-3,14.4h-28.3l11.4-14.4Zm.6,74.9h10.5v15.8h-10.5Zm12.6-4h-14.6a2,2,0,0,0-2,2v17.8h-30V35.21h30.1v18.9a2,2,0,0,0,2,2h14.5a2,2,0,0,0,2-2V35.21h30.1v72.2h-30.1V89.71A2,2,0,0,0,267.37,87.71Zm-12.6-52.5h10.5v16.9h-10.5Zm14.2-4-2.9-14.4h19l12.1,14.4Zm-6.9-14.4,2.9,14.4h-9.6l3-14.4Z" transform="translate(-14.35 -10.02)"/><path d="M133.54,66.33a4.15,4.15,0,0,0-2.8,1.19l-8.4,8.34a4.17,4.17,0,0,0,0,5.9h0l8.4,8.35a4.17,4.17,0,0,0,5.88-5.91L135.38,83h54.91l-1.23,1.23a4.17,4.17,0,0,0,0,5.89h0a4.16,4.16,0,0,0,5.89,0h0l8.34-8.34a4.17,4.17,0,0,0,0-5.89h0L195,67.52A4.18,4.18,0,0,0,189,73.41l0,0,1.2,1.2H135.4l1.22-1.2a4.16,4.16,0,0,0,0-5.89v0a4.16,4.16,0,0,0-3.08-1.19Z" transform="translate(-14.35 -10.02)" style="fill:#108043"/><path d="M162.82,10c-16,0-29.12,11.75-29.12,26.18s13.07,26.17,29.12,26.17,29.12-11.75,29.12-26.17S178.87,10,162.82,10Zm0,46.53c-12.49,0-22.65-9.13-22.65-20.35s10.16-20.36,22.65-20.36S185.47,25,185.47,36.2,175.31,56.55,162.82,56.55Z" transform="translate(-14.35 -10.02)" style="fill:#108043"/><polygon points="145.23 27.86 138.76 22.05 134.17 26.18 145.23 36.12 162.77 20.36 158.17 16.23 145.23 27.86" style="fill:#108043"/></svg>